<svg width="32" height="24" viewBox="0 0 32 24" fill="none" xmlns="http://www.w3.org/2000/svg">
<path d="M28 0.910034H4C2.93913 0.910034 1.92172 1.33146 1.17157 2.0816C0.421424 2.83175 0 3.84917 0 4.91003V19.91C0 20.9709 0.421424 21.9883 1.17157 22.7385C1.92172 23.4886 2.93913 23.91 4 23.91H28C29.0609 23.91 30.0783 23.4886 30.8284 22.7385C31.5786 21.9883 32 20.9709 32 19.91V4.91003C32 3.84917 31.5786 2.83175 30.8284 2.0816C30.0783 1.33146 29.0609 0.910034 28 0.910034ZM27.63 7.68002L16.63 16.68C16.4518 16.8246 16.2294 16.9034 16 16.9034C15.7706 16.9034 15.5482 16.8246 15.37 16.68L4.37 7.68002C4.25338 7.60285 4.15424 7.50208 4.07899 7.38422C4.00373 7.26635 3.95403 7.13402 3.9331 6.99576C3.91217 6.85749 3.92047 6.71637 3.95747 6.58151C3.99446 6.44666 4.05933 6.32106 4.14788 6.21283C4.23643 6.1046 4.3467 6.01615 4.47156 5.95319C4.59642 5.89022 4.7331 5.85415 4.87277 5.84729C5.01244 5.84043 5.152 5.86294 5.28243 5.91336C5.41286 5.96379 5.53126 6.04102 5.63 6.14005L16 14.62L26.37 6.14005C26.5766 6.00334 26.8266 5.94818 27.0715 5.98526C27.3165 6.02234 27.5389 6.14903 27.6958 6.34076C27.8527 6.53249 27.9328 6.77561 27.9206 7.02304C27.9085 7.27047 27.8049 7.50459 27.63 7.68002Z" fill="#15655B"/>
</svg>
