<svg width="100" height="101" viewBox="0 0 100 101" fill="none" xmlns="http://www.w3.org/2000/svg">
<g id="figma">
<path id="Vector" d="M63.8834 36.6126C67.4928 36.5043 70.9181 34.9943 73.4329 32.4029C75.9477 29.8115 77.3543 26.3424 77.3543 22.7313C77.3543 19.1203 75.9477 15.6512 73.4329 13.0598C70.9181 10.4684 67.4928 8.95842 63.8834 8.8501H36.1167C32.5073 8.95842 29.082 10.4684 26.5671 13.0598C24.0523 15.6512 22.6458 19.1203 22.6458 22.7313C22.6458 26.3424 24.0523 29.8115 26.5671 32.4029C29.082 34.9943 32.5073 36.5043 36.1167 36.6126C32.4757 36.6757 29.0052 38.1663 26.4526 40.7635C23.9 43.3606 22.4697 46.8565 22.4697 50.498C22.4697 54.1395 23.9 57.6354 26.4526 60.2325C29.0052 62.8297 32.4757 64.3204 36.1167 64.3834C32.4935 64.4722 29.0485 65.9739 26.5174 68.5678C23.9862 71.1618 22.5693 74.6425 22.5693 78.2668C22.5693 81.891 23.9862 85.3717 26.5174 87.9657C29.0485 90.5596 32.4935 92.0613 36.1167 92.1501C39.7988 92.1479 43.3295 90.6839 45.9327 88.0798C48.536 85.4758 49.9989 81.9447 50 78.2626V36.6126H63.8834Z" fill="#F2E0CF" fill-opacity="0.8"/>
<path id="Vector_2" d="M63.8833 64.3793C71.5509 64.3793 77.7667 58.1636 77.7667 50.496C77.7667 42.8285 71.5509 36.6127 63.8833 36.6127C56.2158 36.6127 50 42.8285 50 50.496C50 58.1636 56.2158 64.3793 63.8833 64.3793Z" fill="#F2E0CF" fill-opacity="0.8"/>
</g>
</svg>
