<svg width="100" height="101" viewBox="0 0 100 101" fill="none" xmlns="http://www.w3.org/2000/svg">
<g id="html">
<path id="Vector" d="M14.1797 9.87097L20.625 82.7811L50 91.121L79.2578 82.7811L85.8301 9.87097H14.1797ZM72.2852 27.1659L71.8164 31.7753L71.6504 33.6796H37.334L38.1348 42.8788H70.8594L70.5371 45.2518L68.4668 68.9042L68.3008 70.4862L50.0391 75.5253V75.5546H49.9219L49.8926 75.5643V75.5546H49.8828L31.4648 70.4764L30.3516 56.3553H39.248L39.8828 63.5038L49.8828 66.2089H49.9219L59.8828 63.5135L60.9961 51.9315H49.8926V51.9217H29.8828L27.6563 27.1659L27.4902 24.7928H72.4414L72.2852 27.1659Z" fill="#F2E0CF" fill-opacity="0.8"/>
</g>
</svg>
