<svg width="100" height="90" viewBox="0 0 100 90" fill="none" xmlns="http://www.w3.org/2000/svg">
<g id="Group">
<g id="Group_2">
<path id="Vector" d="M100 45.2001C100 38.5751 91.7042 32.2959 78.9833 28.4043C81.9208 15.4418 80.6167 5.1251 74.8667 1.82093C73.4734 1.0406 71.8965 0.647815 70.3 0.683431V5.2251C71.2375 5.2251 71.9917 5.4126 72.625 5.75843C75.3958 7.3501 76.6 13.4001 75.6625 21.1876C75.4375 23.1043 75.0708 25.1209 74.6208 27.1793C70.361 26.1528 66.0375 25.4108 61.6792 24.9584C59.0827 21.3763 56.25 17.9715 53.2 14.7668C59.8458 8.59177 66.0833 5.20843 70.325 5.20843V0.662598C64.7167 0.662598 57.3792 4.65843 49.9583 11.5876C42.5417 4.70426 35.2 0.745931 29.5958 0.745931V5.2876C33.8167 5.2876 40.075 8.65426 46.7208 14.7876C43.8667 17.7876 41.0125 21.1876 38.3 24.9584C33.9326 25.4058 29.6015 26.1548 25.3375 27.2001C24.8667 25.1626 24.5208 23.1876 24.275 21.2918C23.3167 13.5001 24.5 7.4501 27.2542 5.84176C27.8625 5.4751 28.6583 5.30843 29.5958 5.30843V0.766764C27.8875 0.766764 26.3333 1.13343 24.9917 1.90426C19.2625 5.20843 17.9792 15.5001 20.9333 28.4251C8.25417 32.3418 0 38.5959 0 45.2001C0 51.8251 8.29583 58.1043 21.0167 61.9918C18.0792 74.9584 19.3833 85.2751 25.1333 88.5751C26.4583 89.3501 28.0083 89.7168 29.7167 89.7168C35.325 89.7168 42.6625 85.7209 50.0833 78.7918C57.5 85.6793 64.8375 89.6334 70.4458 89.6334C72.0546 89.6674 73.6435 89.2734 75.05 88.4918C80.7792 85.1918 82.0625 74.9001 79.1083 61.9751C91.7458 58.0834 100 51.8043 100 45.2001ZM73.4583 31.6043C72.6666 34.3287 71.7489 37.0149 70.7083 39.6543C69.0048 36.3408 67.1344 33.1158 65.1042 29.9918C68 30.4209 70.7917 30.9501 73.4625 31.6043H73.4583ZM64.125 53.3126C62.5375 56.0626 60.9042 58.6751 59.2125 61.1001C53.0969 61.6391 46.946 61.6461 40.8292 61.1209C37.3206 56.1092 34.2522 50.8033 31.6583 45.2626C34.2483 39.7089 37.3036 34.3843 40.7917 29.3459C46.9058 28.8058 53.0553 28.7974 59.1708 29.3209C60.8625 31.7459 62.5167 34.3376 64.1042 37.0709C65.6542 39.7376 67.0625 42.4459 68.3458 45.1793C67.0483 47.9458 65.6402 50.659 64.125 53.3126ZM70.7083 50.6626C71.8083 53.3918 72.75 56.1251 73.5208 58.7751C70.8542 59.4293 68.0375 59.9793 65.125 60.4043C67.1468 57.2518 69.0103 54.0006 70.7083 50.6626ZM50.0417 72.4126C48.1458 70.4543 46.25 68.2751 44.375 65.8876C46.2083 65.9709 48.0833 66.0334 49.9792 66.0334C51.8958 66.0334 53.7917 65.9918 55.6458 65.8876C53.8125 68.2751 51.9167 70.4543 50.0417 72.4126ZM34.875 60.4043C32.0656 59.9972 29.2765 59.4605 26.5167 58.7959C27.2708 56.1668 28.2083 53.4543 29.2667 50.7459C30.1042 52.3709 30.9833 54.0043 31.9417 55.6376C32.9 57.2668 33.875 58.8584 34.875 60.4043ZM49.9375 17.9876C51.8333 19.9459 53.7292 22.1251 55.6042 24.5126C53.7708 24.4293 51.8958 24.3668 50 24.3668C48.0833 24.3668 46.1875 24.4084 44.3333 24.5126C46.1667 22.1251 48.0625 19.9459 49.9375 17.9876ZM34.8542 29.9959C32.8328 33.1415 30.9694 36.3858 29.2708 39.7168C28.2009 37.0603 27.2623 34.3529 26.4583 31.6043C29.125 30.9709 31.9417 30.4209 34.8542 29.9959ZM16.4083 55.5126C9.19167 52.4376 4.525 48.4001 4.525 45.2001C4.525 42.0001 9.19167 37.9418 16.4083 34.8876C18.1583 34.1334 20.075 33.4584 22.0542 32.8293C23.2167 36.8209 24.7458 40.9793 26.6375 45.2418C24.8515 49.2509 23.3411 53.3771 22.1167 57.5918C20.181 56.9924 18.276 56.2985 16.4083 55.5126ZM27.375 84.6376C24.6042 83.0543 23.4 76.9959 24.3375 69.2126C24.5625 67.2959 24.9292 65.2751 25.3792 63.2168C29.3708 64.1959 33.7333 64.9501 38.3208 65.4418C40.9174 69.0238 43.7501 72.4286 46.8 75.6334C40.1542 81.8084 33.9167 85.1918 29.675 85.1918C28.8748 85.2005 28.0847 85.0116 27.375 84.6418V84.6376ZM75.725 69.1084C76.6833 76.8959 75.5 82.9501 72.7458 84.5584C72.1375 84.9251 71.3417 85.0876 70.4042 85.0876C66.1833 85.0876 59.925 81.7251 53.2792 75.5876C56.1333 72.5959 58.9875 69.1918 61.7 65.4209C66.0674 64.9736 70.3985 64.2245 74.6625 63.1793C75.1333 65.2376 75.4958 67.2126 75.725 69.1084ZM83.5708 55.5126C81.8208 56.2668 79.9042 56.9418 77.925 57.5709C76.6791 53.3348 75.1478 49.1878 73.3417 45.1584C75.2167 40.9209 76.7208 36.7834 77.8625 32.8084C79.8833 33.4376 81.7958 34.1334 83.5917 34.8876C90.8083 37.9626 95.475 42.0001 95.475 45.2001C95.4542 48.4001 90.7875 52.4584 83.5708 55.5126Z" fill="#F2E0CF" fill-opacity="0.8"/>
<path id="Vector_2" d="M49.9793 54.5168C52.4502 54.5168 54.8199 53.5352 56.5671 51.788C58.3144 50.0407 59.2959 47.671 59.2959 45.2001C59.2959 42.7292 58.3144 40.3594 56.5671 38.6122C54.8199 36.865 52.4502 35.8834 49.9793 35.8834C47.5083 35.8834 45.1386 36.865 43.3914 38.6122C41.6442 40.3594 40.6626 42.7292 40.6626 45.2001C40.6626 47.671 41.6442 50.0407 43.3914 51.788C45.1386 53.5352 47.5083 54.5168 49.9793 54.5168Z" fill="#F2E0CF" fill-opacity="0.8"/>
</g>
</g>
</svg>
