<svg width="101" height="101" viewBox="0 0 101 101" fill="none" xmlns="http://www.w3.org/2000/svg">
<g id="sass">
<path id="Vector" d="M47.1626 69.7022C47.0688 69.8709 47.1157 69.7959 47.1626 69.7022V69.7022ZM86.0876 56.1084C82.9438 56.1084 79.8438 56.8272 77.0251 58.2178C76.1032 56.3584 75.1501 54.7334 74.9938 53.5147C74.8063 52.0928 74.6032 51.249 74.822 49.5615C75.0407 47.874 76.0251 45.4834 76.0095 45.3115C75.9938 45.1397 75.7907 44.2803 73.7751 44.2647C71.7595 44.249 70.0251 44.6553 69.822 45.1865C69.4653 46.1572 69.1883 47.1553 68.9938 48.1709C68.6345 49.999 64.9657 56.5303 62.8876 59.9365C62.2001 58.6084 61.622 57.4365 61.497 56.499C61.3095 55.0772 61.1063 54.2334 61.3251 52.5459C61.5438 50.8584 62.5282 48.4678 62.5126 48.2959C62.497 48.124 62.2938 47.2647 60.2813 47.249C58.2688 47.2334 56.5313 47.6397 56.3282 48.1709C56.1251 48.7022 55.9063 49.9522 55.5001 51.1553C55.0938 52.3584 50.2032 63.2334 48.9251 66.0615C48.2688 67.4991 47.7063 68.6553 47.3001 69.4365C47.2376 69.5615 47.1907 69.6397 47.1595 69.7022C47.2063 69.624 47.2376 69.5459 47.2376 69.5772C46.8938 70.2491 46.6907 70.624 46.6907 70.624V70.6397C46.4251 71.1397 46.1282 71.5928 45.9876 71.5928C45.8938 71.5928 45.6907 70.2803 46.0345 68.4834C46.7688 64.7022 48.5032 58.8272 48.4876 58.624C48.472 58.5147 48.8157 57.499 47.347 56.9522C45.9251 56.4365 45.4095 57.2959 45.2845 57.2959C45.1595 57.2959 45.0657 57.6084 45.0657 57.6084C45.0657 57.6084 46.6438 50.9834 42.0345 50.9834C39.1595 50.9834 35.1595 54.1397 33.1938 56.999C31.9595 57.6709 29.2876 59.124 26.4751 60.6709L23.2407 62.4522C23.1626 62.374 23.1001 62.2959 23.022 62.2178C17.4282 56.249 7.10322 52.0303 7.54072 44.0147C7.69697 41.0928 8.71259 33.4209 27.397 24.1084C42.7095 16.4834 54.9501 18.5772 57.0595 23.2334C60.0907 29.874 50.5126 42.2334 34.6126 44.0147C28.5501 44.6865 25.3657 42.3428 24.5688 41.4678C23.7407 40.5459 23.6157 40.499 23.3032 40.6709C22.7876 40.9522 23.1157 41.7647 23.3032 42.249C23.772 43.4834 25.7251 45.6709 29.0532 46.7647C31.9751 47.7178 39.0813 48.249 47.672 44.9209C57.3251 41.2022 64.8407 30.8428 62.6345 22.1709C60.3907 13.3584 45.7782 10.4678 31.9626 15.374C23.7282 18.2959 14.8251 22.8897 8.42197 28.874C0.812593 35.999 -0.403032 42.2022 0.0969679 44.7959C1.87822 53.999 14.5626 59.999 19.6376 64.4365L18.9345 64.8272C16.3876 66.0928 6.71884 71.1553 4.29697 76.499C1.56259 82.5615 4.75009 86.9053 6.84072 87.499C13.372 89.3115 20.0563 86.0459 23.6501 80.6865C27.2438 75.3272 26.8063 68.3272 25.1501 65.1397C25.1345 65.0928 25.1032 65.0615 25.0876 65.0147C26.9625 63.9041 28.8533 62.8207 30.7595 61.7647C30.1345 63.4522 29.6813 65.4834 29.447 68.4209C29.1657 71.8584 30.5876 76.3115 32.4313 78.0615C33.2438 78.8272 34.2251 78.8428 34.8376 78.8428C36.9938 78.8428 37.9626 77.0615 39.0407 74.9365C40.3688 72.3428 41.5407 69.3272 41.5407 69.3272C41.5407 69.3272 40.072 77.4834 44.0876 77.4834C45.5563 77.4834 47.0251 75.5928 47.6813 74.624V74.6397C47.6813 74.6397 47.7126 74.5772 47.7907 74.4522C47.947 74.2178 48.0251 74.0772 48.0251 74.0772V74.0303C48.6188 73.0147 49.9157 70.6866 51.8688 66.8428C54.4001 61.874 56.8188 55.6709 56.8188 55.6709C57.0532 57.0334 57.3782 58.3803 57.7876 59.7022C58.2251 61.1865 59.147 62.8115 59.8813 64.3897C59.2876 65.2022 58.9282 65.6709 58.9282 65.6709C58.9282 65.6834 58.9345 65.6928 58.9438 65.7022C58.4751 66.3272 57.9438 66.999 57.397 67.6553C55.4001 70.0303 53.022 72.749 52.7095 73.5303C52.3345 74.4522 52.4282 75.1397 53.147 75.6709C53.6782 76.0772 54.6157 76.1397 55.6001 76.0615C57.397 75.9365 58.6626 75.499 59.272 75.2178C60.3959 74.8151 61.4582 74.2576 62.4282 73.5615C64.3813 72.124 65.5688 70.0615 65.4595 67.3428C65.397 65.8428 64.9126 64.3428 64.3188 62.9365C64.4907 62.6865 64.6782 62.4209 64.8501 62.1553C66.8834 59.1214 68.7155 55.9573 70.3345 52.6834C70.5688 54.0459 70.8907 55.3928 71.3032 56.7147C71.6782 57.9803 72.4126 59.3709 73.0845 60.7303C70.1782 63.0897 68.3813 65.824 67.7595 67.6209C66.6032 70.949 67.5095 72.449 69.2126 72.7928C69.9782 72.949 71.072 72.5897 71.8845 72.2459C73.0907 71.8428 74.2282 71.2584 75.2563 70.5115C77.2095 69.074 79.1001 67.0584 78.972 64.324C78.9251 63.0897 78.5813 61.8553 78.1282 60.6678C80.5813 59.6365 83.7689 59.074 87.8314 59.5428C96.5313 60.5584 98.2345 65.9959 97.9063 68.2615C97.5782 70.5272 95.7501 71.7928 95.1407 72.1678C94.5313 72.5428 94.3438 72.6834 94.3907 72.9647C94.4688 73.3709 94.7501 73.3553 95.2657 73.2615C95.9845 73.1365 99.8282 71.4178 100 67.2147C100.25 61.9022 95.1407 56.0584 86.0938 56.1053L86.0876 56.1084ZM19.0282 78.7178C16.1532 81.8584 12.1251 83.0459 10.3907 82.0459C8.53134 80.9647 9.26572 76.3428 12.8095 72.9959C14.9657 70.9647 17.747 69.0897 19.5907 67.9334C20.0126 67.6834 20.622 67.3084 21.372 66.8553C21.4329 66.8162 21.4955 66.7797 21.5595 66.7459C21.7001 66.6522 21.8563 66.574 22.0126 66.4803C23.3063 71.2303 22.0595 75.4178 19.0282 78.7147V78.7178ZM40.022 64.4365C39.022 66.8897 36.9157 73.1397 35.6313 72.8115C34.5376 72.5303 33.8657 67.7647 35.4126 63.0772C36.1938 60.7178 37.8501 57.9053 38.8345 56.8115C40.4126 55.0459 42.147 54.4834 42.5532 55.1865C43.1001 56.1084 40.647 62.9053 40.022 64.4365ZM57.3657 72.7178C56.9438 72.9365 56.5532 73.0772 56.3657 72.9678C56.2251 72.8897 56.5376 72.5928 56.5376 72.5928C56.5376 72.5928 58.7095 70.2647 59.5688 69.2022C60.0688 68.5772 60.647 67.8428 61.272 67.0303C61.272 67.1084 61.2876 67.1865 61.2876 67.2803C61.2688 70.0772 58.5813 71.9678 57.3626 72.7178H57.3657ZM70.7407 69.6709C70.4282 69.4522 70.4751 68.7178 71.522 66.4365C71.9282 65.5459 72.8657 64.0459 74.4907 62.6084C74.6751 63.1522 74.7751 63.7209 74.7876 64.2959C74.772 67.8115 72.2563 69.124 70.7407 69.6709Z" fill="#F2E0CF" fill-opacity="0.8"/>
</g>
</svg>
