<svg width="39" height="29" viewBox="0 0 39 29" fill="none" xmlns="http://www.w3.org/2000/svg">
<path d="M9.7 28.2C8.1 28.2 6.7 27.9 5.5 27.3C4.3 26.6333 3.33333 25.7667 2.6 24.7C1.93333 23.6333 1.4 22.3667 1 20.9C0.6 19.4333 0.4 17.9 0.4 16.3C0.4 13.0333 1.23333 9.96666 2.9 7.1C4.63333 4.23333 7.3 1.96666 10.9 0.299994L11.8 2.09999C9.93333 2.96666 8.26667 4.23333 6.8 5.9C5.4 7.5 4.56667 9.2 4.3 11C3.9 12.4 3.86667 13.7667 4.2 15.1C5.66667 13.5 7.63333 12.7 10.1 12.7C12.3667 12.7 14.2333 13.4 15.7 14.8C17.1667 16.1333 17.9 18 17.9 20.4C17.9 22.7333 17.1333 24.6333 15.6 26.1C14.0667 27.5 12.1 28.2 9.7 28.2ZM30.3 28.2C28.7 28.2 27.3 27.9 26.1 27.3C24.9 26.6333 23.9333 25.7667 23.2 24.7C22.5333 23.6333 22 22.3667 21.6 20.9C21.2 19.4333 21 17.9 21 16.3C21 13.0333 21.8333 9.96666 23.5 7.1C25.2333 4.23333 27.9 1.96666 31.5 0.299994L32.4 2.09999C30.5333 2.96666 28.8667 4.23333 27.4 5.9C26 7.5 25.1667 9.2 24.9 11C24.5 12.4 24.4667 13.7667 24.8 15.1C26.2667 13.5 28.2333 12.7 30.7 12.7C32.9667 12.7 34.8333 13.4 36.3 14.8C37.7667 16.1333 38.5 18 38.5 20.4C38.5 22.7333 37.7333 24.6333 36.2 26.1C34.6667 27.5 32.7 28.2 30.3 28.2Z" fill="#F2E0CF"/>
</svg>
