<svg width="15" height="15" viewBox="0 0 15 15" fill="none" xmlns="http://www.w3.org/2000/svg">
<path fill-rule="evenodd" clip-rule="evenodd" d="M15 0V15H0V0H15ZM7.87063 14.5362L7.86375 14.5375L7.81938 14.5594L7.80688 14.5619L7.79813 14.5594L7.75375 14.5375C7.7475 14.535 7.74188 14.5369 7.73875 14.5406L7.73625 14.5469L7.72563 14.8144L7.72875 14.8269L7.735 14.835L7.8 14.8812L7.80937 14.8837L7.81687 14.8812L7.88188 14.835L7.88938 14.825L7.89187 14.8144L7.88125 14.5475C7.88 14.5412 7.87563 14.5369 7.87063 14.5362ZM8.03625 14.4656L8.02812 14.4669L7.9125 14.525L7.90625 14.5312L7.90438 14.5381L7.91563 14.8069L7.91875 14.8144L7.92375 14.8187L8.04937 14.8769C8.05688 14.8794 8.06375 14.8769 8.0675 14.8719L8.07 14.8631L8.04875 14.4794C8.04688 14.4719 8.0425 14.4669 8.03625 14.4656ZM7.58937 14.4669C7.58654 14.4656 7.58335 14.4653 7.58031 14.4659C7.57727 14.4666 7.57453 14.4683 7.5725 14.4706L7.56875 14.4794L7.5475 14.8631C7.5475 14.8706 7.55188 14.8756 7.55813 14.8781L7.5675 14.8769L7.69312 14.8187L7.69938 14.8137L7.70187 14.8069L7.7125 14.5381L7.71062 14.5306L7.70437 14.5244L7.58937 14.4669Z" fill="#15655B"/>
<path fill-rule="evenodd" clip-rule="evenodd" d="M1.875 3.125C1.875 2.79348 2.0067 2.47554 2.24112 2.24112C2.47554 2.0067 2.79348 1.875 3.125 1.875H11.875C12.2065 1.875 12.5245 2.0067 12.7589 2.24112C12.9933 2.47554 13.125 2.79348 13.125 3.125V11.875C13.125 12.2065 12.9933 12.5245 12.7589 12.7589C12.5245 12.9933 12.2065 13.125 11.875 13.125H3.125C2.79348 13.125 2.47554 12.9933 2.24112 12.7589C2.0067 12.5245 1.875 12.2065 1.875 11.875V3.125Z" fill="#15655B"/>
</svg>
