<svg width="48" height="48" viewBox="0 0 48 48" fill="none" xmlns="http://www.w3.org/2000/svg">
<path d="M0.710941 47.2966L3.85626 35.806L3.91134 35.6048L3.80707 35.4241C1.76913 31.8924 0.698042 27.8888 0.7 23.7822C0.705874 10.9462 11.1521 0.500085 23.9858 0.5L0.710941 47.2966ZM0.710941 47.2966L12.4831 44.2084L12.6752 44.158L12.8495 44.2531C16.2497 46.1088 20.0893 47.086 23.9863 47.088C36.8199 47.0879 47.2661 36.6419 47.272 23.8038L0.710941 47.2966ZM3.716 23.7838C3.71398 28.2717 5.01218 31.6546 7.16794 35.1311L5.22776 42.2159L4.99899 43.0513L5.83679 42.8317L13.1193 40.9225C16.4623 42.8816 19.7101 44.068 23.9778 44.07H23.978C35.15 44.07 44.2498 34.9783 44.256 23.8003V23.8002C44.2601 12.6004 35.2027 3.5201 23.9942 3.516H23.994C12.814 3.516 3.7201 12.6077 3.716 23.7838ZM3.716 23.7838L4.216 23.784L3.716 23.7838ZM34.6044 29.2112L34.6038 29.2109C34.3095 29.0633 33.4328 28.6304 32.5616 28.2098C31.6744 27.7814 30.8379 27.3879 30.5955 27.3L30.595 27.2998C30.3076 27.1952 30.1811 27.1686 30.099 27.178L30.0979 27.1781C30.07 27.1813 29.9875 27.1906 29.844 27.4053C29.844 27.4055 29.8439 27.4056 29.8438 27.4057L29.428 27.128L34.6044 29.2112ZM34.6044 29.2112C34.7395 29.2788 34.8547 29.3342 34.9563 29.3832M34.6044 29.2112L34.9563 29.3832M18.0784 20.9724L18.0798 20.9711C18.2408 20.8113 18.4154 20.5981 18.6076 20.3635C18.7141 20.2334 18.8261 20.0967 18.9442 19.9588L18.9482 19.9541L18.9483 19.9541C19.1582 19.715 19.239 19.5513 19.3857 19.2538C19.4134 19.1977 19.4434 19.1369 19.477 19.07C19.5729 18.8778 19.545 18.7106 19.4274 18.4768C19.3397 18.303 18.9944 17.47 18.6246 16.5715C18.4793 16.2185 18.328 15.8497 18.1827 15.4957C17.9499 14.9283 17.7326 14.3988 17.5806 14.0327C17.3606 13.5064 17.1827 13.3869 17.1143 13.3545C17.0459 13.3222 17.0117 13.3226 16.9202 13.3236C16.8674 13.3241 16.7957 13.3249 16.6875 13.3198L15.56 13.3C15.2776 13.301 14.7802 13.409 14.3493 13.8811C14.3129 13.921 14.2725 13.9641 14.229 14.0107C13.6242 14.6576 12.4 15.9671 12.4 18.502C12.4 19.8525 12.8946 21.2086 13.4478 22.2984C13.9892 23.3647 14.5655 24.1354 14.7196 24.3415L14.7255 24.3494C14.7481 24.3794 14.7876 24.4357 14.8433 24.5152C15.5901 25.5815 19.2656 30.829 24.6762 33.165C26.0723 33.7675 27.1625 34.1277 28.0173 34.3994C29.3417 34.8198 30.5536 34.7633 31.5364 34.6175C32.0134 34.5464 32.825 34.2242 33.5884 33.7348C34.3636 33.2378 34.9609 32.6499 35.1511 32.118L18.0784 20.9724ZM18.0784 20.9724C18.0738 20.9771 18.0689 20.9819 18.064 20.9869C17.9276 21.123 17.704 21.3462 17.5926 21.6461C17.4594 22.0044 17.507 22.3895 17.7396 22.789L18.0784 20.9724ZM40.4582 7.32932C36.06 2.92722 30.2153 0.501999 23.986 0.5L40.4582 7.32932ZM40.4582 7.32932C44.8545 11.7315 47.2739 17.5803 47.272 23.8038L40.4582 7.32932ZM34.9563 29.3832C35.1008 29.4528 35.2179 29.5091 35.3257 29.5682M34.9563 29.3832L35.3257 29.5682M35.3257 29.5682C35.4098 29.6143 35.4644 29.6499 35.5003 29.6784M35.3257 29.5682L35.5003 29.6784M35.5003 29.6784C35.5136 29.689 35.5227 29.6973 35.5287 29.7033M35.5003 29.6784L35.5287 29.7033M35.5287 29.7033C35.5326 29.7211 35.542 29.7659 35.5485 29.8486C35.5592 29.9832 35.559 30.1703 35.5391 30.4009C35.4995 30.8609 35.3845 31.4637 35.1512 32.1177L35.5287 29.7033Z" fill="#15655B" stroke="#15655B"/>
</svg>
